				<svg width="151" height="150" viewBox="0 0 151 150" fill="none" xmlns="http://www.w3.org/2000/svg">
					<path d="M146.537 82.9104C143.662 86.1705 142.767 90.6772 144.173 94.7365C146.122 100.458 143.534 106.722 138.103 109.375C134.238 111.261 131.682 115.097 131.426 119.38V119.412C131.043 125.42 126.251 130.215 120.245 130.598H120.213C115.932 130.854 112.098 133.411 110.213 137.279C107.562 142.712 101.3 145.301 95.5815 143.351C91.5242 141.945 87.0196 142.84 83.793 145.685L83.761 145.717C79.2564 149.712 72.4517 149.712 67.9472 145.717L67.9152 145.685C64.6885 142.84 60.184 141.945 56.1267 143.351C50.4081 145.301 44.1465 142.712 41.4949 137.279C39.61 133.411 35.7763 130.854 31.4954 130.598H31.4635C25.4574 130.215 20.6653 125.42 20.282 119.412V119.38C20.0264 115.097 17.4706 111.261 13.605 109.375C8.17399 106.722 5.58626 100.458 7.53504 94.7365C8.94072 90.6772 8.0462 86.1705 5.2029 82.9423L5.17095 82.9104C1.17755 78.4036 1.17755 71.5956 5.17095 67.0889L5.2029 67.057C8.0462 63.8288 8.94072 59.322 7.53504 55.2628C5.58626 49.5415 8.17399 43.2769 13.605 40.624C17.4706 38.7382 20.0264 34.9027 20.282 30.6197V30.5877C20.6653 24.5788 25.4574 19.7844 31.4635 19.4009H31.4954C35.7763 19.1452 39.61 16.5882 41.4949 12.7207C44.1465 7.28709 50.4081 4.69813 56.1267 6.64784C60.184 8.05419 64.6885 7.15924 67.9152 4.31458L67.9472 4.28262C72.4517 0.287305 79.2564 0.287305 83.761 4.28262L83.793 4.31458C87.0196 7.15924 91.5242 8.05419 95.5815 6.64784C101.3 4.69813 107.562 7.28709 110.213 12.7207C112.098 16.5882 115.932 19.1452 120.213 19.4009H120.245C126.251 19.7844 131.043 24.5788 131.426 30.5877V30.6197C131.682 34.9027 134.238 38.7382 138.103 40.624C143.534 43.2769 146.122 49.5415 144.173 55.2628C142.767 59.322 143.662 63.8288 146.505 67.057L146.537 67.0889C150.499 71.5956 150.499 78.3717 146.537 82.9104Z" fill="url(#paint0_linear)"/>
					<path opacity="0.16" d="M75.8374 25.1865C48.3629 25.1865 26.0318 47.5283 26.0318 75.0161C26.0318 102.504 48.3629 124.846 75.8374 124.846C103.312 124.846 125.643 102.504 125.643 75.0161C125.643 47.5283 103.312 25.1865 75.8374 25.1865Z" fill="url(#paint1_linear)"/>
					<path d="M75.8375 150C72.6108 150 69.5119 148.817 67.0839 146.676C65.1032 144.95 62.6113 143.991 59.9917 143.991C58.8096 143.991 57.6595 144.183 56.5094 144.566L56.4455 144.598C55.1037 145.046 53.6661 145.302 52.1966 145.302C47.1808 145.302 42.4846 142.393 40.2803 137.854C38.5871 134.402 35.1687 132.133 31.367 131.877C24.69 131.462 19.3549 126.124 18.9395 119.476C18.684 115.64 16.4157 112.22 12.9654 110.526C6.9913 107.618 4.08411 100.65 6.22457 94.3533V94.3213C7.47051 90.7096 6.67183 86.6503 4.148 83.8057C-0.26071 78.7876 -0.26071 71.2444 4.11605 66.2583C6.67183 63.3497 7.47051 59.3224 6.22457 55.7106C4.05216 49.3821 6.9274 42.4142 12.9335 39.4737C16.3838 37.7797 18.652 34.3597 18.9076 30.5561C19.3229 23.876 24.6581 18.5382 31.3031 18.1227C35.1368 17.867 38.5551 15.5977 40.2483 12.1458C42.4527 7.63904 47.117 4.69849 52.1646 4.69849C53.6342 4.69849 55.0718 4.95419 56.4775 5.43362C57.5956 5.81717 58.7777 6.00895 59.9597 6.00895C62.5474 6.00895 65.0713 5.05008 67.02 3.35606C69.5119 1.18261 72.6108 0 75.8375 0C79.0641 0 82.163 1.18261 84.591 3.3241C86.5717 5.05007 89.0636 6.00895 91.6833 6.00895C92.8653 6.00895 94.0154 5.81717 95.1655 5.43362H95.1975C96.5712 4.95419 98.0088 4.73045 99.4784 4.73045C104.494 4.73045 109.19 7.63904 111.395 12.1777C113.088 15.6297 116.506 17.899 120.308 18.1547C126.985 18.5702 132.32 23.9079 132.735 30.5561C132.991 34.3916 135.259 37.8116 138.71 39.5056C144.716 42.4142 147.591 49.3821 145.45 55.6787V55.7106C144.204 59.3224 145.003 63.3816 147.527 66.2263C151.936 71.2444 151.936 78.7876 147.559 83.7737C145.003 86.6503 144.204 90.6776 145.45 94.2894V94.3213C147.623 100.65 144.748 107.618 138.741 110.526C135.291 112.22 133.023 115.64 132.767 119.444C132.352 126.124 127.017 131.462 120.372 131.877C116.538 132.133 113.12 134.402 111.427 137.854C109.222 142.361 104.558 145.302 99.5103 145.302C98.0407 145.302 96.6031 145.046 95.1975 144.566C94.0793 144.183 92.8972 143.991 91.7152 143.991C89.1275 143.991 86.6037 144.95 84.6549 146.644C82.163 148.817 79.0641 150 75.8375 150ZM75.8375 15.0543C42.8041 15.0543 15.9365 41.9348 15.9365 74.984C15.9365 108.033 42.8041 134.914 75.8375 134.914C108.871 134.914 135.738 108.033 135.738 74.984C135.738 41.9348 108.871 15.0543 75.8375 15.0543Z" fill="url(#paint2_linear)"/>
					<path d="M146.537 67.0889C143.662 63.8287 142.767 59.322 144.173 55.2628C146.122 49.5415 143.534 43.2769 138.103 40.624C134.238 38.7382 131.682 34.9027 131.426 30.6197V30.5877C131.043 24.5788 126.251 19.7844 120.245 19.4009H120.213C115.932 19.1452 112.098 16.5882 110.213 12.7207C107.562 7.28709 101.3 4.69813 95.5815 6.64784C91.5242 8.05419 87.0196 7.15924 83.793 4.31458L83.761 4.28262C79.2564 0.287305 72.4517 0.287305 67.9472 4.28262L67.9152 4.31458C64.6885 7.15924 60.184 8.05419 56.1267 6.64784C50.4081 4.69813 44.1465 7.28709 41.4949 12.7207C39.61 16.5882 35.7763 19.1452 31.4954 19.4009H31.4635C25.4574 19.7844 20.6653 24.5788 20.282 30.5877V30.6197C20.0264 34.9027 17.4706 38.7382 13.605 40.624C8.17399 43.2769 5.58626 49.5415 7.53504 55.2628C8.94072 59.322 8.0462 63.8288 5.2029 67.057L5.17095 67.0889C1.17755 71.5956 1.17755 78.4036 5.17095 82.9104L5.2029 82.9423C8.0462 86.1705 8.94072 90.6772 7.53504 94.7365C5.58626 100.458 8.17399 106.722 13.605 109.375C17.4706 111.261 20.0264 115.097 20.282 119.38V119.412C20.6653 125.42 25.4574 130.215 31.4635 130.598H31.4954C35.7763 130.854 39.61 133.411 41.4949 137.279C44.1465 142.712 50.4081 145.301 56.1267 143.351C60.184 141.945 64.6885 142.84 67.9152 145.685L67.9472 145.717C72.4517 149.712 79.2564 149.712 83.761 145.717L83.793 145.685C87.0196 142.84 91.5242 141.945 95.5815 143.351C101.3 145.301 107.562 142.712 110.213 137.279C112.098 133.411 115.932 130.854 120.213 130.598H120.245C126.251 130.215 131.043 125.42 131.426 119.412V119.38C131.682 115.097 134.238 111.261 138.103 109.375C143.534 106.722 146.122 100.458 144.173 94.7365C142.767 90.6772 143.662 86.1705 146.505 82.9423L146.537 82.9104C150.499 78.3717 150.499 71.5956 146.537 67.0889ZM75.8381 136.224C42.1019 136.224 14.6593 108.768 14.6593 75.0156C14.6593 41.2313 42.1019 13.7755 75.8381 13.7755C109.574 13.7755 137.017 41.2313 137.017 74.9837C137.017 108.768 109.574 136.224 75.8381 136.224Z" fill="url(#paint3_linear)"/>
					<path d="M67.7229 49.3174C68.0104 50.0845 68.298 50.8835 68.5535 51.6506H75.8375H83.1214C83.377 50.8516 83.6645 50.0845 83.9521 49.3174H67.7229Z" fill="url(#paint4_linear)"/>
					<path d="M89.3191 38.7383C87.3704 41.7428 85.741 44.939 84.3993 48.2312H78.7446C77.6904 47.7198 76.7319 47.0486 75.8374 46.2495C74.9749 47.0486 73.9845 47.7198 72.9302 48.2312H67.2756C65.9338 44.9071 64.2725 41.7428 62.3557 38.7383C62.5154 38.6105 62.6752 38.4826 62.803 38.3228L65.7102 40.6561C69.1605 43.4048 74.304 41.4551 75.0387 37.0763L75.4541 34.4873C75.5818 34.5193 75.7096 34.5193 75.8374 34.5193C75.9652 34.5193 76.093 34.5193 76.2208 34.4873L76.6361 37.0763C77.3709 41.4232 82.5144 43.4048 85.9647 40.6561L88.8719 38.3228C88.9997 38.4826 89.1274 38.6105 89.3191 38.7383Z" fill="url(#paint5_linear)"/>
					<path d="M77.5945 32.2179C77.5945 33.0809 76.9556 33.816 76.1249 33.9758C76.0291 34.0078 75.9333 34.0078 75.8374 34.0078C75.7416 34.0078 75.6457 34.0078 75.5499 33.9758C74.7193 33.848 74.0803 33.1128 74.0803 32.2179C74.0803 31.2271 74.879 30.46 75.8374 30.46C76.8278 30.46 77.5945 31.2271 77.5945 32.2179Z" fill="url(#paint6_linear)"/>
					<path d="M91.843 37.076C91.843 37.8751 91.2041 38.5143 90.4054 38.5143C90.1179 38.5143 89.8303 38.4184 89.6067 38.2586C89.4789 38.1627 89.3831 38.0668 89.2872 37.971C89.0956 37.7153 88.9678 37.4276 88.9678 37.076C88.9678 36.2769 89.6067 35.6377 90.4054 35.6377C91.2041 35.6377 91.843 36.2769 91.843 37.076Z" fill="url(#paint7_linear)"/>
					<path d="M62.7072 37.076C62.7072 37.4276 62.5794 37.7153 62.3877 37.971C62.2918 38.0988 62.196 38.1947 62.0682 38.2586C61.8446 38.4184 61.5571 38.5143 61.2695 38.5143C60.4709 38.5143 59.8319 37.8751 59.8319 37.076C59.8319 36.2769 60.4709 35.6377 61.2695 35.6377C62.0682 35.6377 62.7072 36.2769 62.7072 37.076Z" fill="url(#paint8_linear)"/>
					<path d="M101.459 71.1492C101.459 71.9802 101.172 72.6194 100.628 73.1308C100.085 73.6422 99.3825 73.8979 98.5839 73.8979C97.7532 73.8979 97.0823 73.6422 96.5392 73.1308C95.9961 72.6194 95.7086 71.9482 95.7086 71.1492C95.7086 70.3181 95.9961 69.6789 96.5392 69.1675C97.0823 68.6561 97.7852 68.4004 98.5839 68.4004C99.3825 68.4004 100.085 68.6561 100.628 69.1675C101.172 69.6789 101.459 70.3181 101.459 71.1492ZM106.635 68.6241L97.913 79.1398H96.699L105.389 68.6241H106.635ZM99.4784 71.1492C99.4784 70.478 99.4145 69.9346 99.2867 69.5191C99.1589 69.1036 98.9033 68.9118 98.5519 68.9118C98.2325 68.9118 98.0088 69.1036 97.8491 69.4871C97.7213 69.8707 97.6254 70.3821 97.6254 71.0852C97.6254 71.7884 97.6893 72.3637 97.8171 72.7473C97.9449 73.1628 98.2005 73.3546 98.5519 73.3546C98.8714 73.3546 99.095 73.1628 99.2228 72.7793C99.4145 72.4277 99.4784 71.8843 99.4784 71.1492ZM107.625 76.6467C107.625 77.4777 107.337 78.117 106.794 78.6284C106.251 79.1398 105.548 79.3955 104.75 79.3955C103.919 79.3955 103.248 79.1398 102.705 78.6284C102.162 78.117 101.874 77.4458 101.874 76.6467C101.874 75.8157 102.162 75.1764 102.705 74.665C103.248 74.1536 103.951 73.8979 104.75 73.8979C105.548 73.8979 106.251 74.1536 106.794 74.665C107.369 75.1764 107.625 75.8477 107.625 76.6467ZM105.676 76.6787C105.676 76.0075 105.612 75.4641 105.484 75.0486C105.357 74.6331 105.101 74.4413 104.75 74.4413C104.43 74.4413 104.207 74.6331 104.047 75.0166C103.919 75.4002 103.823 75.9116 103.823 76.6148C103.823 77.3179 103.887 77.8932 104.015 78.2768C104.143 78.6923 104.398 78.8841 104.75 78.8841C105.069 78.8841 105.293 78.6923 105.421 78.3088C105.612 77.9252 105.676 77.3819 105.676 76.6787Z" fill="url(#paint9_linear)"/>
					<path d="M55.1357 81.0897H44.1139V80.0669C44.3695 80.0349 44.8168 80.0029 45.3918 79.939C45.9669 79.8751 46.3822 79.8112 46.5739 79.7153C46.8295 79.6194 47.0531 79.4596 47.2128 79.2678C47.3726 79.0441 47.4364 78.7564 47.4364 78.3728V69.9028H44.05V68.6243H44.7848C45.5516 68.6243 46.2225 68.5284 46.7975 68.3686C47.3726 68.2088 47.8198 67.985 48.2032 67.7613C48.5865 67.5056 48.906 67.2499 49.1616 66.9942C49.4172 66.7385 49.6089 66.4828 49.7366 66.291H52.1007C52.0688 66.8663 52.0368 67.5376 52.0049 68.3366C51.9729 69.1037 51.9729 69.8069 51.9729 70.4142V78.245C51.9729 78.5646 52.0368 78.8523 52.1646 79.076C52.2924 79.2998 52.516 79.4915 52.7716 79.6194C52.9953 79.7153 53.3786 79.8112 53.9217 79.907C54.4648 80.0029 54.8801 80.0349 55.1357 80.0669V81.0897Z" fill="url(#paint10_linear)"/>
					<path d="M71.7164 68.624C72.3872 69.3272 72.8984 70.1582 73.2179 71.0532C73.5373 71.9801 73.6971 72.907 73.6971 73.8978C73.6971 75.0804 73.5054 76.1352 73.0901 77.0621C72.6748 77.989 72.1317 78.7881 71.4288 79.4593C70.694 80.1305 69.8315 80.6419 68.8411 81.0255C67.8507 81.3771 66.7326 81.5688 65.4547 81.5688C64.1129 81.5688 62.9309 81.3451 61.8766 80.9296C60.8543 80.5141 59.9917 79.9707 59.2889 79.2675C58.618 78.5963 58.1069 77.7972 57.7554 76.8703C57.404 75.9434 57.2123 74.9526 57.2123 73.9298C57.2123 72.875 57.3721 71.9161 57.7235 71.0212C58.043 70.1262 58.5861 69.3272 59.257 68.5921C59.9278 67.8889 60.7904 67.3136 61.8447 66.898C62.8989 66.4825 64.081 66.2588 65.4547 66.2588C66.8604 66.2588 68.0744 66.4825 69.1286 66.898C70.1829 67.3455 71.0455 67.9208 71.7164 68.624ZM67.9466 78.5963C68.2022 77.989 68.3939 77.3178 68.4897 76.5827C68.5855 75.8475 68.6494 74.9526 68.6494 73.8978C68.6494 72.9389 68.5855 72.1079 68.4897 71.3408C68.3939 70.5737 68.2022 69.9025 67.9785 69.3272C67.723 68.7199 67.4035 68.2405 66.9882 67.9208C66.5729 67.6012 66.0617 67.4414 65.4867 67.4414C64.8797 67.4414 64.3685 67.6012 63.9532 67.9208C63.5379 68.2405 63.2184 68.7199 62.9628 69.2952C62.7392 69.8386 62.5475 70.5098 62.4517 71.3089C62.3558 72.1079 62.2919 72.9709 62.2919 73.8978C62.2919 74.8887 62.3239 75.7197 62.4197 76.4229C62.5156 77.126 62.6753 77.7972 62.9309 78.4365C63.1545 79.0118 63.474 79.4913 63.8893 79.8429C64.3046 80.1944 64.8158 80.3862 65.4547 80.3862C66.0298 80.3862 66.509 80.2264 66.9243 79.9068C67.3715 79.5872 67.691 79.1397 67.9466 78.5963Z" fill="url(#paint11_linear)"/>
					<path d="M90.9166 68.624C91.5874 69.3272 92.0986 70.1582 92.4181 71.0532C92.7375 71.9801 92.8973 72.907 92.8973 73.8978C92.8973 75.0804 92.7056 76.1352 92.2903 77.0621C91.875 77.989 91.3319 78.7881 90.629 79.4593C89.8942 80.1305 89.0317 80.6419 88.0413 81.0255C87.0509 81.3771 85.9328 81.5688 84.6549 81.5688C83.3131 81.5688 82.1311 81.3451 81.0768 80.9296C80.0545 80.5141 79.1919 79.9707 78.4891 79.2675C77.8182 78.5963 77.3071 77.7972 76.9556 76.8703C76.6042 75.9434 76.4125 74.9526 76.4125 73.9298C76.4125 72.875 76.5723 71.9161 76.9237 71.0212C77.2432 70.1262 77.7863 69.3272 78.4572 68.5921C79.128 67.8889 79.9906 67.3136 81.0449 66.898C82.0991 66.4825 83.2812 66.2588 84.6549 66.2588C86.0606 66.2588 87.2746 66.4825 88.3288 66.898C89.3831 67.3455 90.2457 67.9208 90.9166 68.624ZM87.1468 78.5963C87.4024 77.989 87.5941 77.3178 87.6899 76.5827C87.7857 75.8475 87.8496 74.9526 87.8496 73.8978C87.8496 72.9389 87.7857 72.1079 87.6899 71.3408C87.5941 70.5737 87.4024 69.9025 87.1787 69.3272C86.9232 68.7199 86.6037 68.2405 86.1884 67.9208C85.7731 67.6012 85.2619 67.4414 84.6869 67.4414C84.0799 67.4414 83.5687 67.6012 83.1534 67.9208C82.7381 68.2405 82.4186 68.7199 82.163 69.2952C81.9394 69.8386 81.7477 70.5098 81.6519 71.3089C81.556 72.1079 81.4921 72.9709 81.4921 73.8978C81.4921 74.8887 81.5241 75.7197 81.6199 76.4229C81.7158 77.126 81.8755 77.7972 82.1311 78.4365C82.3547 79.0118 82.6742 79.4913 83.0895 79.8429C83.5048 80.1944 84.016 80.3862 84.6549 80.3862C85.23 80.3862 85.7092 80.2264 86.1245 79.9068C86.5717 79.5872 86.8912 79.1397 87.1468 78.5963Z" fill="url(#paint12_linear)"/>
					<path d="M50.12 90.8058V94.7052H49.0977C49.0658 94.5773 49.0338 94.3216 49.0019 93.9061C48.6185 94.5134 47.9795 94.8011 47.117 94.8011C46.1905 94.8011 45.4557 94.4495 44.8807 93.7144C44.3056 92.9792 44.05 91.9884 44.05 90.7418C44.05 88.2168 45.3918 86.6826 47.2448 86.6826C49.2894 86.6826 50.0561 88.3127 50.0561 89.4633L48.6504 89.6871C48.6504 88.952 48.2671 88.025 47.2767 88.025C46.3183 88.025 45.5835 89.0798 45.5835 90.7738C45.5835 92.4678 46.2863 93.5546 47.3726 93.5546C48.299 93.5546 48.8421 92.8833 48.8421 91.8605H47.085V90.8377H50.12V90.8058ZM48.906 91.8605L48.8421 91.8286L48.906 91.8605ZM55.3913 86.7146H56.9248V91.5729C56.9248 92.5637 56.6692 93.3308 56.1261 93.9061C55.6149 94.5134 54.9121 94.8011 54.0495 94.8011C53.1869 94.8011 52.516 94.5134 51.9729 93.9061C51.4298 93.3308 51.1743 92.5637 51.1743 91.5729V86.7146H52.7077V91.5409C52.7077 92.7235 53.2508 93.4267 54.0495 93.4267C54.8482 93.4267 55.3593 92.7235 55.3593 91.5409V86.7146H55.3913ZM62.228 94.7052L61.7488 92.9153H59.3847L58.9055 94.7052H57.3401L59.7361 86.7146H61.3654L63.7615 94.7052H62.228ZM59.7042 91.7327H61.4613L60.7904 89.2077C60.6945 88.8241 60.6306 88.5045 60.5987 88.3127H60.5667C60.5348 88.5364 60.4709 88.8241 60.3751 89.2077L59.7042 91.7327ZM70.0231 93.5546L70.1189 94.7052C69.9273 94.7691 69.6717 94.8011 69.3522 94.8011C67.2756 94.8011 67.8187 91.8605 66.3172 91.8605H66.0297V94.7052H64.4962V86.7146H66.8603C68.6494 86.7146 69.6078 87.5456 69.6078 89.3355C69.6078 90.4222 69.1605 91.1574 68.2021 91.5729C68.5535 91.7647 68.8091 92.308 68.9688 92.7235C69.1286 93.171 69.4161 93.5546 69.7995 93.5546H70.0231ZM66.0297 90.7738H66.6686C67.5312 90.7738 68.1063 90.2624 68.1063 89.3675C68.1063 88.4406 67.6271 87.9611 66.7645 87.9611H66.0297V90.7738ZM75.1346 94.7052L74.6554 92.9153H72.2913L71.8121 94.7052H70.2467L72.6428 86.7146H74.2721L76.6681 94.7052H75.1346ZM72.6108 91.7327H74.3679L73.697 89.2077C73.6012 88.8241 73.5373 88.5045 73.5053 88.3127H73.4734C73.4414 88.5364 73.3776 88.8241 73.2817 89.2077L72.6108 91.7327ZM83.2173 86.7146V94.7052H81.6519L79.6073 90.7099C79.5114 90.4861 79.2239 89.9108 79.0322 89.5912C78.9364 89.4314 78.8725 89.3035 78.8405 89.2396L78.7766 89.2716C78.8405 89.4633 78.8725 89.9747 78.8725 90.7099V94.7372H77.4029V86.7465H78.8725L81.0129 90.9656C81.3005 91.5409 81.7158 92.308 81.8116 92.4678L81.8755 92.4359C81.8116 92.0843 81.7797 91.6048 81.7797 90.9656L81.7477 86.7785H83.2173V86.7146ZM86.0925 94.7052V87.9931H84.0479V86.7465H89.6706V87.9931H87.626V94.7052H86.0925ZM95.0058 87.9931H92.0028V90.0387H94.5905V91.2533H92.0028V93.4906H95.0058V94.7372H90.4693V86.7465H95.0058V87.9931ZM100.692 87.9931H97.6894V90.0387H100.277V91.2533H97.6894V93.4906H100.692V94.7372H96.1559V86.7465H100.692V87.9931ZM104.239 86.7146C106.411 86.7146 107.625 88.1848 107.625 90.7099C107.625 93.3628 106.603 94.7052 104.558 94.7052H101.842V86.7146H104.239ZM104.366 93.4906C105.516 93.4906 106.091 92.6596 106.091 90.7099C106.091 88.8241 105.421 87.9292 104.047 87.9292H103.376V93.4587H104.366V93.4906Z" fill="url(#paint13_linear)"/>
					<path d="M75.8375 137.502C41.3984 137.502 13.3488 109.471 13.3488 74.9838C13.3488 40.4962 41.3984 12.4971 75.8375 12.4971C110.277 12.4971 138.326 40.5282 138.326 75.0157C138.326 109.503 110.277 137.502 75.8375 137.502ZM75.8375 21.2868C46.2544 21.2868 22.1662 45.3865 22.1662 74.9838C22.1662 104.581 46.2544 128.681 75.8375 128.681C105.421 128.681 129.509 104.581 129.509 74.9838C129.509 45.3865 105.421 21.2868 75.8375 21.2868Z" fill="url(#paint14_linear)"/>
					<path d="M75.8374 13.7754C42.1012 13.7754 14.6586 41.2312 14.6586 74.9836C14.6586 108.736 42.1012 136.192 75.8374 136.192C109.574 136.192 137.016 108.736 137.016 74.9836C137.016 41.2312 109.574 13.7754 75.8374 13.7754ZM75.8374 129.991C45.5196 129.991 20.8883 105.316 20.8883 75.0155C20.8883 44.6831 45.5515 20.04 75.8374 20.04C106.155 20.04 130.787 44.7151 130.787 75.0155C130.787 105.316 106.155 129.991 75.8374 129.991Z" fill="url(#paint15_linear)"/>
					<path d="M48.6824 61.5912L48.0754 61.3674C50.5353 54.8151 55.6149 49.0619 61.9724 45.6738L62.2919 46.2492C56.0622 49.5733 51.1104 55.1667 48.6824 61.5912Z" fill="url(#paint16_linear)"/>
					<path d="M102.993 61.591C100.501 54.9428 95.453 49.2854 89.1275 45.9933L89.415 45.418C95.8684 48.774 101.044 54.5592 103.568 61.3673L102.993 61.591Z" fill="url(#paint17_linear)"/>
					<path d="M50.6312 103.591L50.2478 101.321L52.2924 102.408L54.337 101.321L53.9537 103.591L55.6149 105.221L53.3147 105.54L52.2924 107.618L51.2701 105.54L48.9699 105.221L50.6312 103.591Z" fill="url(#paint18_linear)"/>
					<path d="M61.0459 108.8L60.6625 106.499L62.7071 107.586L64.7518 106.499L64.3684 108.8L66.0297 110.398L63.7295 110.718L62.7071 112.796L61.6848 110.718L59.3846 110.398L61.0459 108.8Z" fill="url(#paint19_linear)"/>
					<path d="M72.9622 110.654L72.5469 108.385L74.5915 109.44L76.6681 108.385L76.2528 110.654L77.914 112.284L75.6458 112.604L74.5915 114.681L73.5692 112.604L71.301 112.284L72.9622 110.654Z" fill="url(#paint20_linear)"/>
					<path d="M84.4951 108.928L84.1117 106.627L86.1564 107.714L88.201 106.627L87.8176 108.928L89.4789 110.526L87.1787 110.878L86.1564 112.956L85.1341 110.878L82.8339 110.526L84.4951 108.928Z" fill="url(#paint21_linear)"/>
					<path d="M94.7821 103.974L94.3987 101.673L96.4434 102.76L98.488 101.673L98.1046 103.974L99.7659 105.572L97.4657 105.924L96.4434 108.001L95.421 105.924L93.1208 105.572L94.7821 103.974Z" fill="url(#paint22_linear)"/>
					<defs>
					<linearGradient id="paint0_linear" x1="225.472" y1="-233.322" x2="62.9454" y2="101.245" gradientUnits="userSpaceOnUse">
					<stop offset="0.1044" stop-color="#BA903F"/>
					<stop offset="0.5" stop-color="#996019"/>
					<stop offset="0.6412" stop-color="#6F4411"/>
					<stop offset="0.7989" stop-color="#472A09"/>
					<stop offset="0.924" stop-color="#2E1904"/>
					<stop offset="1" stop-color="#251302"/>
					</linearGradient>
					<linearGradient id="paint1_linear" x1="73.1264" y1="8.93631" x2="75.0616" y2="56.0035" gradientUnits="userSpaceOnUse">
					<stop offset="0.1044" stop-color="#BA903F"/>
					<stop offset="0.5" stop-color="#996019"/>
					<stop offset="0.6412" stop-color="#6F4411"/>
					<stop offset="0.7989" stop-color="#472A09"/>
					<stop offset="0.924" stop-color="#2E1904"/>
					<stop offset="1" stop-color="#251302"/>
					</linearGradient>
					<linearGradient id="paint2_linear" x1="138.23" y1="-51.2247" x2="21.7099" y2="184.282" gradientUnits="userSpaceOnUse">
					<stop stop-color="#FFD744"/>
					<stop offset="0.0678869" stop-color="#A6761A"/>
					<stop offset="0.1851" stop-color="#FFD744"/>
					<stop offset="0.3981" stop-color="#FFD744"/>
					<stop offset="0.561" stop-color="#FCF4AE"/>
					<stop offset="0.6792" stop-color="#FFD744"/>
					<stop offset="0.75" stop-color="#A6761A"/>
					<stop offset="0.8802" stop-color="#FFD744"/>
					<stop offset="0.967" stop-color="#FCF4AE"/>
					<stop offset="1" stop-color="#FFD744"/>
					</linearGradient>
					<linearGradient id="paint3_linear" x1="199.359" y1="-253.172" x2="25.2123" y2="209.063" gradientUnits="userSpaceOnUse">
					<stop stop-color="#FFD744"/>
					<stop offset="0.0678869" stop-color="#A6761A"/>
					<stop offset="0.1851" stop-color="#FFD744"/>
					<stop offset="0.3981" stop-color="#FFD744"/>
					<stop offset="0.561" stop-color="#FCF4AE"/>
					<stop offset="0.6792" stop-color="#FFD744"/>
					<stop offset="0.75" stop-color="#A6761A"/>
					<stop offset="0.8802" stop-color="#FFD744"/>
					<stop offset="0.967" stop-color="#FCF4AE"/>
					<stop offset="1" stop-color="#FFD744"/>
					</linearGradient>
					<linearGradient id="paint4_linear" x1="77.7303" y1="33.272" x2="68.6993" y2="109.784" gradientUnits="userSpaceOnUse">
					<stop stop-color="#FFD744"/>
					<stop offset="0.0678869" stop-color="#A6761A"/>
					<stop offset="0.1851" stop-color="#FFD744"/>
					<stop offset="0.3981" stop-color="#FFD744"/>
					<stop offset="0.561" stop-color="#FCF4AE"/>
					<stop offset="0.6792" stop-color="#FFD744"/>
					<stop offset="0.75" stop-color="#A6761A"/>
					<stop offset="0.8802" stop-color="#FFD744"/>
					<stop offset="0.967" stop-color="#FCF4AE"/>
					<stop offset="1" stop-color="#FFD744"/>
					</linearGradient>
					<linearGradient id="paint5_linear" x1="76.5001" y1="33.1276" x2="67.4691" y2="109.639" gradientUnits="userSpaceOnUse">
					<stop stop-color="#FFD744"/>
					<stop offset="0.0678869" stop-color="#A6761A"/>
					<stop offset="0.1851" stop-color="#FFD744"/>
					<stop offset="0.3981" stop-color="#FFD744"/>
					<stop offset="0.561" stop-color="#FCF4AE"/>
					<stop offset="0.6792" stop-color="#FFD744"/>
					<stop offset="0.75" stop-color="#A6761A"/>
					<stop offset="0.8802" stop-color="#FFD744"/>
					<stop offset="0.967" stop-color="#FCF4AE"/>
					<stop offset="1" stop-color="#FFD744"/>
					</linearGradient>
					<linearGradient id="paint6_linear" x1="75.7432" y1="33.0383" x2="66.7128" y2="109.546" gradientUnits="userSpaceOnUse">
					<stop stop-color="#FFD744"/>
					<stop offset="0.0678869" stop-color="#A6761A"/>
					<stop offset="0.1851" stop-color="#FFD744"/>
					<stop offset="0.3981" stop-color="#FFD744"/>
					<stop offset="0.561" stop-color="#FCF4AE"/>
					<stop offset="0.6792" stop-color="#FFD744"/>
					<stop offset="0.75" stop-color="#A6761A"/>
					<stop offset="0.8802" stop-color="#FFD744"/>
					<stop offset="0.967" stop-color="#FCF4AE"/>
					<stop offset="1" stop-color="#FFD744"/>
					</linearGradient>
					<linearGradient id="paint7_linear" x1="90.6743" y1="34.8008" x2="81.6441" y2="111.306" gradientUnits="userSpaceOnUse">
					<stop stop-color="#FFD744"/>
					<stop offset="0.0678869" stop-color="#A6761A"/>
					<stop offset="0.1851" stop-color="#FFD744"/>
					<stop offset="0.3981" stop-color="#FFD744"/>
					<stop offset="0.561" stop-color="#FCF4AE"/>
					<stop offset="0.6792" stop-color="#FFD744"/>
					<stop offset="0.75" stop-color="#A6761A"/>
					<stop offset="0.8802" stop-color="#FFD744"/>
					<stop offset="0.967" stop-color="#FCF4AE"/>
					<stop offset="1" stop-color="#FFD744"/>
					</linearGradient>
					<linearGradient id="paint8_linear" x1="61.9423" y1="31.4096" x2="52.9121" y2="107.915" gradientUnits="userSpaceOnUse">
					<stop stop-color="#FFD744"/>
					<stop offset="0.0678869" stop-color="#A6761A"/>
					<stop offset="0.1851" stop-color="#FFD744"/>
					<stop offset="0.3981" stop-color="#FFD744"/>
					<stop offset="0.561" stop-color="#FCF4AE"/>
					<stop offset="0.6792" stop-color="#FFD744"/>
					<stop offset="0.75" stop-color="#A6761A"/>
					<stop offset="0.8802" stop-color="#FFD744"/>
					<stop offset="0.967" stop-color="#FCF4AE"/>
					<stop offset="1" stop-color="#FFD744"/>
					</linearGradient>
					<linearGradient id="paint9_linear" x1="106.73" y1="25.2334" x2="101.139" y2="78.9626" gradientUnits="userSpaceOnUse">
					<stop stop-color="#FFD744"/>
					<stop offset="0.0678869" stop-color="#A6761A"/>
					<stop offset="0.1851" stop-color="#FFD744"/>
					<stop offset="0.3981" stop-color="#FFD744"/>
					<stop offset="0.561" stop-color="#FCF4AE"/>
					<stop offset="0.6792" stop-color="#FFD744"/>
					<stop offset="0.75" stop-color="#A6761A"/>
					<stop offset="0.8802" stop-color="#FFD744"/>
					<stop offset="0.967" stop-color="#FCF4AE"/>
					<stop offset="1" stop-color="#FFD744"/>
					</linearGradient>
					<linearGradient id="paint10_linear" x1="55.2994" y1="19.882" x2="49.7089" y2="73.6114" gradientUnits="userSpaceOnUse">
					<stop stop-color="#FFD744"/>
					<stop offset="0.0678869" stop-color="#A6761A"/>
					<stop offset="0.1851" stop-color="#FFD744"/>
					<stop offset="0.3981" stop-color="#FFD744"/>
					<stop offset="0.561" stop-color="#FCF4AE"/>
					<stop offset="0.6792" stop-color="#FFD744"/>
					<stop offset="0.75" stop-color="#A6761A"/>
					<stop offset="0.8802" stop-color="#FFD744"/>
					<stop offset="0.967" stop-color="#FCF4AE"/>
					<stop offset="1" stop-color="#FFD744"/>
					</linearGradient>
					<linearGradient id="paint11_linear" x1="70.9316" y1="21.5084" x2="65.3411" y2="75.2377" gradientUnits="userSpaceOnUse">
					<stop stop-color="#FFD744"/>
					<stop offset="0.0678869" stop-color="#A6761A"/>
					<stop offset="0.1851" stop-color="#FFD744"/>
					<stop offset="0.3981" stop-color="#FFD744"/>
					<stop offset="0.561" stop-color="#FCF4AE"/>
					<stop offset="0.6792" stop-color="#FFD744"/>
					<stop offset="0.75" stop-color="#A6761A"/>
					<stop offset="0.8802" stop-color="#FFD744"/>
					<stop offset="0.967" stop-color="#FCF4AE"/>
					<stop offset="1" stop-color="#FFD744"/>
					</linearGradient>
					<linearGradient id="paint12_linear" x1="89.9217" y1="23.4844" x2="84.3312" y2="77.2136" gradientUnits="userSpaceOnUse">
					<stop stop-color="#FFD744"/>
					<stop offset="0.0678869" stop-color="#A6761A"/>
					<stop offset="0.1851" stop-color="#FFD744"/>
					<stop offset="0.3981" stop-color="#FFD744"/>
					<stop offset="0.561" stop-color="#FCF4AE"/>
					<stop offset="0.6792" stop-color="#FFD744"/>
					<stop offset="0.75" stop-color="#A6761A"/>
					<stop offset="0.8802" stop-color="#FFD744"/>
					<stop offset="0.967" stop-color="#FCF4AE"/>
					<stop offset="1" stop-color="#FFD744"/>
					</linearGradient>
					<linearGradient id="paint13_linear" x1="78.0711" y1="-0.152539" x2="75.5501" y2="102.44" gradientUnits="userSpaceOnUse">
					<stop stop-color="#FFD744"/>
					<stop offset="0.0678869" stop-color="#A6761A"/>
					<stop offset="0.1851" stop-color="#FFD744"/>
					<stop offset="0.3981" stop-color="#FFD744"/>
					<stop offset="0.561" stop-color="#FCF4AE"/>
					<stop offset="0.6792" stop-color="#FFD744"/>
					<stop offset="0.75" stop-color="#A6761A"/>
					<stop offset="0.8802" stop-color="#FFD744"/>
					<stop offset="0.967" stop-color="#FCF4AE"/>
					<stop offset="1" stop-color="#FFD744"/>
					</linearGradient>
					<linearGradient id="paint14_linear" x1="91.2375" y1="15.2841" x2="54.7936" y2="156.477" gradientUnits="userSpaceOnUse">
					<stop stop-color="#FFD744"/>
					<stop offset="0.0678869" stop-color="#A6761A"/>
					<stop offset="0.1851" stop-color="#FFD744"/>
					<stop offset="0.3981" stop-color="#FFD744"/>
					<stop offset="0.561" stop-color="#FCF4AE"/>
					<stop offset="0.6792" stop-color="#FFD744"/>
					<stop offset="0.75" stop-color="#A6761A"/>
					<stop offset="0.8802" stop-color="#FFD744"/>
					<stop offset="0.967" stop-color="#FCF4AE"/>
					<stop offset="1" stop-color="#FFD744"/>
					</linearGradient>
					<linearGradient id="paint15_linear" x1="97.9972" y1="-5.61447" x2="55.4256" y2="149.117" gradientUnits="userSpaceOnUse">
					<stop stop-color="#FFD744"/>
					<stop offset="0.0678869" stop-color="#A6761A"/>
					<stop offset="0.1851" stop-color="#FFD744"/>
					<stop offset="0.3981" stop-color="#FFD744"/>
					<stop offset="0.561" stop-color="#FCF4AE"/>
					<stop offset="0.6792" stop-color="#FFD744"/>
					<stop offset="0.75" stop-color="#A6761A"/>
					<stop offset="0.8802" stop-color="#FFD744"/>
					<stop offset="0.967" stop-color="#FCF4AE"/>
					<stop offset="1" stop-color="#FFD744"/>
					</linearGradient>
					<linearGradient id="paint16_linear" x1="58.8122" y1="38.0933" x2="45.9114" y2="93.9704" gradientUnits="userSpaceOnUse">
					<stop stop-color="#FFD744"/>
					<stop offset="0.0678869" stop-color="#A6761A"/>
					<stop offset="0.1851" stop-color="#FFD744"/>
					<stop offset="0.3981" stop-color="#FFD744"/>
					<stop offset="0.561" stop-color="#FCF4AE"/>
					<stop offset="0.6792" stop-color="#FFD744"/>
					<stop offset="0.75" stop-color="#A6761A"/>
					<stop offset="0.8802" stop-color="#FFD744"/>
					<stop offset="0.967" stop-color="#FCF4AE"/>
					<stop offset="1" stop-color="#FFD744"/>
					</linearGradient>
					<linearGradient id="paint17_linear" x1="97.8792" y1="47.1131" x2="84.9783" y2="102.99" gradientUnits="userSpaceOnUse">
					<stop stop-color="#FFD744"/>
					<stop offset="0.0678869" stop-color="#A6761A"/>
					<stop offset="0.1851" stop-color="#FFD744"/>
					<stop offset="0.3981" stop-color="#FFD744"/>
					<stop offset="0.561" stop-color="#FCF4AE"/>
					<stop offset="0.6792" stop-color="#FFD744"/>
					<stop offset="0.75" stop-color="#A6761A"/>
					<stop offset="0.8802" stop-color="#FFD744"/>
					<stop offset="0.967" stop-color="#FCF4AE"/>
					<stop offset="1" stop-color="#FFD744"/>
					</linearGradient>
					<linearGradient id="paint18_linear" x1="51.667" y1="57.2045" x2="52.7474" y2="139.009" gradientUnits="userSpaceOnUse">
					<stop stop-color="#FFD744"/>
					<stop offset="0.0678869" stop-color="#A6761A"/>
					<stop offset="0.1851" stop-color="#FFD744"/>
					<stop offset="0.3981" stop-color="#FFD744"/>
					<stop offset="0.561" stop-color="#FCF4AE"/>
					<stop offset="0.6792" stop-color="#FFD744"/>
					<stop offset="0.75" stop-color="#A6761A"/>
					<stop offset="0.8802" stop-color="#FFD744"/>
					<stop offset="0.967" stop-color="#FCF4AE"/>
					<stop offset="1" stop-color="#FFD744"/>
					</linearGradient>
					<linearGradient id="paint19_linear" x1="62.0083" y1="57.0678" x2="63.0887" y2="138.872" gradientUnits="userSpaceOnUse">
					<stop stop-color="#FFD744"/>
					<stop offset="0.0678869" stop-color="#A6761A"/>
					<stop offset="0.1851" stop-color="#FFD744"/>
					<stop offset="0.3981" stop-color="#FFD744"/>
					<stop offset="0.561" stop-color="#FCF4AE"/>
					<stop offset="0.6792" stop-color="#FFD744"/>
					<stop offset="0.75" stop-color="#A6761A"/>
					<stop offset="0.8802" stop-color="#FFD744"/>
					<stop offset="0.967" stop-color="#FCF4AE"/>
					<stop offset="1" stop-color="#FFD744"/>
					</linearGradient>
					<linearGradient id="paint20_linear" x1="73.8769" y1="56.9109" x2="74.9573" y2="138.715" gradientUnits="userSpaceOnUse">
					<stop stop-color="#FFD744"/>
					<stop offset="0.0678869" stop-color="#A6761A"/>
					<stop offset="0.1851" stop-color="#FFD744"/>
					<stop offset="0.3981" stop-color="#FFD744"/>
					<stop offset="0.561" stop-color="#FCF4AE"/>
					<stop offset="0.6792" stop-color="#FFD744"/>
					<stop offset="0.75" stop-color="#A6761A"/>
					<stop offset="0.8802" stop-color="#FFD744"/>
					<stop offset="0.967" stop-color="#FCF4AE"/>
					<stop offset="1" stop-color="#FFD744"/>
					</linearGradient>
					<linearGradient id="paint21_linear" x1="85.4392" y1="56.7584" x2="86.5196" y2="138.562" gradientUnits="userSpaceOnUse">
					<stop stop-color="#FFD744"/>
					<stop offset="0.0678869" stop-color="#A6761A"/>
					<stop offset="0.1851" stop-color="#FFD744"/>
					<stop offset="0.3981" stop-color="#FFD744"/>
					<stop offset="0.561" stop-color="#FCF4AE"/>
					<stop offset="0.6792" stop-color="#FFD744"/>
					<stop offset="0.75" stop-color="#A6761A"/>
					<stop offset="0.8802" stop-color="#FFD744"/>
					<stop offset="0.967" stop-color="#FCF4AE"/>
					<stop offset="1" stop-color="#FFD744"/>
					</linearGradient>
					<linearGradient id="paint22_linear" x1="95.7958" y1="56.6216" x2="96.8762" y2="138.426" gradientUnits="userSpaceOnUse">
					<stop stop-color="#FFD744"/>
					<stop offset="0.0678869" stop-color="#A6761A"/>
					<stop offset="0.1851" stop-color="#FFD744"/>
					<stop offset="0.3981" stop-color="#FFD744"/>
					<stop offset="0.561" stop-color="#FCF4AE"/>
					<stop offset="0.6792" stop-color="#FFD744"/>
					<stop offset="0.75" stop-color="#A6761A"/>
					<stop offset="0.8802" stop-color="#FFD744"/>
					<stop offset="0.967" stop-color="#FCF4AE"/>
					<stop offset="1" stop-color="#FFD744"/>
					</linearGradient>
					</defs>
				</svg>	
