<svg width="244" height="251" viewBox="0 0 244 251" fill="none" xmlns="http://www.w3.org/2000/svg">
<rect opacity="0.1" x="-73" width="146" height="146" rx="20" fill="white"/>
<path opacity="0.15" d="M-178 251H178C178 152.694 98.3067 73 0 73C-98.3067 73 -178 152.694 -178 251Z" fill="white"/>
<path d="M102.758 147.885L114.368 157.611C115.768 158.79 117.81 158.79 119.269 157.611L128.428 149.948C129.828 148.769 131.87 148.769 133.329 149.948L142.488 157.611C143.888 158.79 145.93 158.79 147.389 157.611L156.49 149.948C157.89 148.769 159.932 148.769 161.39 149.948L170.55 157.611C171.95 158.79 173.992 158.79 175.45 157.611L184.61 149.948C186.01 148.769 188.052 148.769 189.51 149.948L198.67 157.611C200.07 158.79 202.112 158.79 203.57 157.611L212.73 149.948C214.13 148.769 216.172 148.769 217.63 149.948L226.79 157.611C228.19 158.79 230.232 158.79 231.69 157.611L243.3 147.885" stroke="white" stroke-width="2" stroke-miterlimit="10"/>
<path d="M102.758 171.346L114.368 181.072C115.768 182.251 117.81 182.251 119.269 181.072L128.428 173.409C129.828 172.23 131.87 172.23 133.329 173.409L142.488 181.072C143.888 182.251 145.93 182.251 147.389 181.072L156.548 173.409C157.948 172.23 159.99 172.23 161.449 173.409L170.608 181.072C172.008 182.251 174.05 182.251 175.509 181.072L184.668 173.409C186.068 172.23 188.11 172.23 189.569 173.409L198.728 181.072C200.128 182.251 202.17 182.251 203.629 181.072L212.788 173.409C214.188 172.23 216.23 172.23 217.689 173.409L226.848 181.072C228.248 182.251 230.29 182.251 231.749 181.072L243.358 171.346" stroke="white" stroke-width="2" stroke-miterlimit="10"/>
<path d="M102.758 194.75L114.368 204.477C115.768 205.656 117.81 205.656 119.269 204.477L128.428 196.813C129.828 195.634 131.87 195.634 133.329 196.813L142.488 204.477C143.888 205.656 145.93 205.656 147.389 204.477L156.548 196.813C157.948 195.634 159.99 195.634 161.449 196.813L170.608 204.477C172.008 205.656 174.05 205.656 175.509 204.477L184.668 196.813C186.068 195.634 188.11 195.634 189.569 196.813L198.728 204.477C200.128 205.656 202.17 205.656 203.629 204.477L212.788 196.813C214.188 195.634 216.23 195.634 217.689 196.813L226.848 204.477C228.248 205.656 230.29 205.656 231.749 204.477L243.3 194.75" stroke="white" stroke-width="2" stroke-miterlimit="10"/>
<path d="M102.758 218.211L114.368 227.938C115.768 229.116 117.81 229.116 119.269 227.938L128.428 220.274C129.828 219.095 131.87 219.095 133.329 220.274L142.488 227.938C143.888 229.116 145.93 229.116 147.389 227.938L156.548 220.274C157.948 219.095 159.99 219.095 161.449 220.274L170.608 227.938C172.008 229.116 174.05 229.116 175.509 227.938L184.668 220.274C186.068 219.095 188.11 219.095 189.569 220.274L198.728 227.938C200.128 229.116 202.17 229.116 203.629 227.938L212.788 220.274C214.188 219.095 216.23 219.095 217.689 220.274L226.848 227.938C228.248 229.116 230.29 229.116 231.749 227.938L243.358 218.211" stroke="white" stroke-width="2" stroke-miterlimit="10"/>
</svg>
